<?xml version="1.0" encoding="iso-8859-1"?>
<!-- Generator: Adobe Illustrator 19.0.0, SVG Export Plug-In . SVG Version: 6.00 Build 0)  -->
<svg version="1.1" id="Capa_1" xmlns="http://www.w3.org/2000/svg" xmlns:xlink="http://www.w3.org/1999/xlink" x="0px" y="0px"
	 viewBox="0 0 512 512" style="enable-background:new 0 0 512 512;" xml:space="preserve">
<g>
	<g>
		<path d="M378.645,127.789l-89.045-42.12c-7.624-3.609-16.724-0.35-20.329,7.273c-3.605,7.623-0.349,16.724,7.273,20.329
			l5.438,2.572l-13.005,27.495c-37.478-3.561-67.953,15.671-86.617,55.131c-5.427,11.474-9.983,24.777-13.476,38.909
			c6.071-0.193,12.195-0.299,18.372-0.299c30.303-0.001,62.425,2.333,95.477,6.936c27.39,3.815,55.724,9.227,84.871,16.192
			c8.04-30.673,1.04-58.247-20.456-79.893l13.005-27.494l5.438,2.572c2.109,0.997,4.331,1.47,6.518,1.47
			c5.719,0,11.203-3.229,13.81-8.743C389.523,140.496,386.267,131.394,378.645,127.789z"/>
	</g>
</g>
<g>
	<g>
		<path d="M502.12,333.894c-79.503-29.982-154.733-50.047-223.6-59.639c-55.525-7.732-107.131-8.72-153.382-2.939
			c-80.49,10.063-117.517,37.352-119.054,38.51C2.253,312.71,0,317.227,0,322.023v90.512c0,8.431,6.835,15.267,15.267,15.267
			h481.467c8.431,0,15.267-6.835,15.267-15.267V348.18C512,341.826,508.064,336.137,502.12,333.894z"/>
	</g>
</g>
<g>
</g>
<g>
</g>
<g>
</g>
<g>
</g>
<g>
</g>
<g>
</g>
<g>
</g>
<g>
</g>
<g>
</g>
<g>
</g>
<g>
</g>
<g>
</g>
<g>
</g>
<g>
</g>
<g>
</g>
</svg>
