<?xml version="1.0" encoding="iso-8859-1"?>
<!-- Generator: Adobe Illustrator 19.0.0, SVG Export Plug-In . SVG Version: 6.00 Build 0)  -->
<svg version="1.1" id="Capa_1" xmlns="http://www.w3.org/2000/svg" xmlns:xlink="http://www.w3.org/1999/xlink" x="0px" y="0px"
	 viewBox="0 0 463 463" style="enable-background:new 0 0 463 463;" xml:space="preserve">
<path d="M455.5,376h-9.755L393.29,91.242c-2.055-11.15-11.773-19.243-23.111-19.243H92.822c-11.338,0-21.057,8.093-23.111,19.243
	L17.255,376H7.5c-4.143,0-7.5,3.358-7.5,7.5s3.357,7.5,7.5,7.5h32c4.143,0,7.5-3.358,7.5-7.5s-3.357-7.5-7.5-7.5h-6.992
	l51.955-282.04c0.743-4.033,4.259-6.96,8.359-6.96h3.203C96.014,87.165,96,87.33,96,87.499c0,10.336,6.71,19.128,16,22.266v188.18
	c-4.765,2.647-8,7.728-8,13.555v16c0,8.547,6.953,15.5,15.5,15.5h80c8.547,0,15.5-6.953,15.5-15.5v-16
	c0-5.827-3.235-10.908-8-13.555v-188.18c9.29-3.138,16-11.93,16-22.266c0-0.169-0.014-0.334-0.025-0.5h17.05
	c-0.011,0.166-0.025,0.331-0.025,0.5c0,10.336,6.71,19.128,16,22.266v188.18c-4.765,2.647-8,7.728-8,13.555v16
	c0,8.547,6.953,15.5,15.5,15.5h80c8.547,0,15.5-6.953,15.5-15.5v-16c0-5.827-3.235-10.908-8-13.555v-188.18
	c9.29-3.138,16-11.93,16-22.266c0-0.169-0.014-0.334-0.025-0.5h3.204c4.101,0,7.616,2.927,8.359,6.96L430.492,376H423.5
	c-4.143,0-7.5,3.358-7.5,7.5s3.357,7.5,7.5,7.5h15.958c0.011,0,0.022,0.001,0.033,0.001c0.011,0,0.021-0.001,0.032-0.001H455.5
	c4.143,0,7.5-3.358,7.5-7.5S459.643,376,455.5,376z M336,109.765v130.234h-65V109.765c9.29-3.138,16-11.93,16-22.266
	c0-0.169-0.014-0.334-0.025-0.5h33.05c-0.011,0.166-0.025,0.331-0.025,0.5C320,97.835,326.71,106.627,336,109.765z M271,296v-17h65
	v17H271z M271,254.999h65v9h-65V254.999z M192,109.765v130.234h-65V109.765c9.29-3.138,16-11.93,16-22.266
	c0-0.169-0.014-0.334-0.025-0.5h33.05c-0.011,0.166-0.025,0.331-0.025,0.5C176,97.835,182.71,106.627,192,109.765z M127,296v-17h65
	v17H127z M127,254.999h65v9h-65V254.999z M110.975,86.999h17.05c-0.011,0.166-0.025,0.331-0.025,0.5c0,4.687-3.813,8.5-8.5,8.5
	s-8.5-3.813-8.5-8.5C111,87.33,110.986,87.165,110.975,86.999z M200,327.5c0,0.276-0.225,0.5-0.5,0.5h-80
	c-0.275,0-0.5-0.224-0.5-0.5v-16c0-0.276,0.225-0.5,0.5-0.5h80c0.275,0,0.5,0.224,0.5,0.5V327.5z M208,87.499
	c0,4.687-3.813,8.5-8.5,8.5s-8.5-3.813-8.5-8.5c0-0.169-0.014-0.334-0.025-0.5h17.05C208.014,87.165,208,87.33,208,87.499z
	 M254.975,86.999h17.05c-0.011,0.166-0.025,0.331-0.025,0.5c0,4.687-3.813,8.5-8.5,8.5s-8.5-3.813-8.5-8.5
	C255,87.33,254.986,87.165,254.975,86.999z M344,327.5c0,0.276-0.225,0.5-0.5,0.5h-80c-0.275,0-0.5-0.224-0.5-0.5v-16
	c0-0.276,0.225-0.5,0.5-0.5h80c0.275,0,0.5,0.224,0.5,0.5V327.5z M352,87.499c0,4.687-3.813,8.5-8.5,8.5s-8.5-3.813-8.5-8.5
	c0-0.169-0.014-0.334-0.025-0.5h17.05C352.014,87.165,352,87.33,352,87.499z"/>
<g>
</g>
<g>
</g>
<g>
</g>
<g>
</g>
<g>
</g>
<g>
</g>
<g>
</g>
<g>
</g>
<g>
</g>
<g>
</g>
<g>
</g>
<g>
</g>
<g>
</g>
<g>
</g>
<g>
</g>
</svg>
